<svg width="577.739990234375px" height="111.239990234375px" xmlns="http://www.w3.org/2000/svg" viewBox="-38.8699951171875 19.3800048828125 577.739990234375 111.239990234375" style="background: rgba(0, 0, 0, 0) none repeat scroll 0% 0%;" preserveAspectRatio="xMidYMid"><defs><filter id="editing-extrude-glow"><feFlood flood-color="#b13a3a" result="flood-1"></feFlood><feMorphology operator="erode" radius="1" in="SourceAlpha" result="erode"></feMorphology><feComposite operator="in" in="flood-1" in2="erode" result="comp1"></feComposite><feConvolveMatrix order="3,3" divisor="1" in="comp1" result="convolve" kernelMatrix="0 0 0 1 1 1 0 0 0"></feConvolveMatrix><feOffset dx="-3" dy="0" in="convolve" result="extrude"></feOffset><feComposite operator="in" in="flood-1" in2="extrude" result="comp-extrude"></feComposite><feFlood flood-color="rgba(38.36191231863839%,15.981717433878034%,15.981717433878034%,0.049)" result="flood-2"></feFlood><feComposite operator="in" in="flood-2" in2="SourceAlpha" result="comp2"></feComposite><feMorphology operator="dilate" radius="1" in="comp2" result="dilate"></feMorphology><feOffset dx="-4.5" dy="0" in="dilate" result="offset"></feOffset><feGaussianBlur in="offset" stdDeviation="5.8" result="blur"></feGaussianBlur><feComponentTransfer in="blur" result="shadow"><feFuncA type="linear" slope="0.8" intercept="-0.2"></feFuncA></feComponentTransfer><feMerge><feMergeNode in="shadow"></feMergeNode><feMergeNode in="comp-extrude"></feMergeNode><feMergeNode in="SourceGraphic"></feMergeNode></feMerge></filter></defs><g filter="url(#editing-extrude-glow)"><g transform="translate(45.07514190673828, 97.1953125)"><path d="M-0.94 4.79L0.82 0.88L0.82 0.88Q1.87-1.38 6.54-11.66L6.54-11.66L6.54-11.66Q11.22-21.95 16.50-33.88L16.50-33.88L16.50-33.88Q17.05-35.15 17.05-36.13L17.05-36.13L17.05-36.13Q17.05-36.85 16.66-37.21L16.66-37.21L16.66-37.21Q16.28-37.56 15.18-37.56L15.18-37.56L15.18-37.56Q12.98-37.56 11.44-36.05L11.44-36.05L11.44-36.05Q9.90-34.54 9.13-32.23L9.13-32.23L9.13-32.23Q8.36-29.92 8.36-27.55L8.36-27.55L8.36-27.55Q8.36-26.84 8.47-25.85L8.47-25.85L8.47-25.85Q7.04-25.85 6.30-27.28L6.30-27.28L6.30-27.28Q5.55-28.71 5.55-30.36L5.55-30.36L5.55-30.36Q5.55-32.67 7.21-34.81L7.21-34.81L7.21-34.81Q8.86-36.96 11.36-38.28L11.36-38.28L11.36-38.28Q13.86-39.60 16.28-39.60L16.28-39.60L16.28-39.60Q18.21-39.60 19.39-38.55L19.39-38.55L19.39-38.55Q20.57-37.51 21.20-34.81L21.20-34.81L21.20-34.81Q21.84-32.12 21.84-27.28L21.84-27.28L21.84-27.28Q21.84-22.82 21.18-13.92L21.18-13.92L21.18-13.92Q20.84-9.68 20.68-5.61L20.68-5.61L20.68-5.61Q22.55-12.81 27.64-22.05L27.64-22.05L27.64-22.05Q32.73-31.30 36.35-36.63L36.35-36.63L36.35-36.63Q37.23-37.95 37.76-38.42L37.76-38.42L37.76-38.42Q38.28-38.88 39.10-38.88L39.10-38.88L39.10-38.88Q39.88-38.88 40.87-38.50L40.87-38.50L40.87-38.50Q39.49-35.20 38.39-30.80L38.39-30.80L38.39-30.80Q36.52-23.54 34.95-14.11L34.95-14.11L34.95-14.11Q33.38-4.67 33.38 0.28L33.38 0.28L33.38 0.28Q33.38 1.59 33.49 2.25L33.49 2.25L33.49 2.25Q33.60 2.92 33.88 3.69L33.88 3.69L34.21 4.79L34.21 4.79Q32.34 4.79 31.38 4.18L31.38 4.18L31.38 4.18Q30.41 3.58 30.06 2.31L30.06 2.31L30.06 2.31Q29.70 1.04 29.70-1.38L29.70-1.38L29.70-1.38Q29.70-7.26 31.07-13.92L31.07-13.92L31.07-13.92Q32.45-20.57 35.20-31.02L35.20-31.02L35.20-31.02Q32.78-27.89 29.81-22.03L29.81-22.03L29.81-22.03Q26.84-16.17 24.28-10.06L24.28-10.06L24.28-10.06Q21.73-3.96 20.46-0.17L20.46-0.17L20.46-0.17Q19.86 0.06 19.64 0.06L19.64 0.06L19.64 0.06Q18.26 0.06 17.74-1.57L17.74-1.57L17.74-1.57Q17.21-3.19 17.21-6.66L17.21-6.66L17.21-6.66Q17.21-9.73 17.66-18.54L17.66-18.54L17.66-18.54Q18.09-27.23 18.09-30.03L18.09-30.03L18.09-30.03Q18.09-31.57 17.98-33.11L17.98-33.11L17.98-33.11Q14.03-23.93 11.17-16.83L11.17-16.83L11.17-16.83Q7.37-7.70 5.50-3.58L5.50-3.58L5.50-3.58Q3.63 0.55 2.09 2.67L2.09 2.67L2.09 2.67Q0.55 4.79-0.94 4.79L-0.94 4.79ZM46.09 1.65L46.09 1.65Q44.28 1.65 43.12 0.03L43.12 0.03L43.12 0.03Q41.97-1.59 41.97-3.90L41.97-3.90L41.97-3.90Q41.97-5.94 42.82-8.94L42.82-8.94L42.82-8.94Q43.67-11.94 44.85-14.16L44.85-14.16L44.85-14.16Q46.04-16.39 46.81-16.39L46.81-16.39L46.81-16.39Q47.14-16.39 47.77-16.06L47.77-16.06L47.77-16.06Q48.40-15.73 48.84-15.29L48.84-15.29L48.84-15.29Q47.69-13.47 46.42-10.09L46.42-10.09L46.42-10.09Q45.16-6.71 45.16-4.24L45.16-4.24L45.16-4.24Q45.16-2.97 45.57-1.76L45.57-1.76L45.57-1.76Q45.98-0.55 47.14-0.55L47.14-0.55L47.14-0.55Q49.06-0.55 51.34-4.10L51.34-4.10L51.34-4.10Q53.63-7.65 56.27-13.09L56.27-13.09L57.15-14.90L57.15-14.90Q59.79-14.41 59.79-13.47L59.79-13.47L59.79-13.47Q59.79-13.37 59.54-12.73L59.54-12.73L59.54-12.73Q59.29-12.10 59.07-11.61L59.07-11.61L59.07-11.61Q57.81-8.80 56.95-6.35L56.95-6.35L56.95-6.35Q56.10-3.90 56.10-2.20L56.10-2.20L56.10-2.20Q56.10 0 57.92 0L57.92 0L57.92 0Q59.13 0 60.78-1.07L60.78-1.07L60.78-1.07Q62.43-2.15 64.13-4.18L64.13-4.18L64.13-4.18Q65.84-6.21 67.10-8.91L67.10-8.91L67.81-8.42L67.81-8.42Q66.66-5.50 64.82-3.22L64.82-3.22L64.82-3.22Q62.98-0.94 60.83 0.36L60.83 0.36L60.83 0.36Q58.69 1.65 56.76 1.65L56.76 1.65L56.76 1.65Q52.91 1.65 52.91-2.42L52.91-2.42L52.91-2.42Q52.91-3.52 53.30-5.17L53.30-5.17L53.30-5.17Q51.54-2.04 49.78-0.19L49.78-0.19L49.78-0.19Q48.02 1.65 46.09 1.65L46.09 1.65ZM68.64 2.09L68.64 2.09Q67.65 2.09 67.02 0.39L67.02 0.39L67.02 0.39Q66.39-1.32 66.39-3.63L66.39-3.63L66.39-3.63Q66.39-8.69 69.49-17.27L69.49-17.27L69.49-17.27Q72.60-25.85 76.56-32.56L76.56-32.56L76.56-32.56Q80.52-39.27 82.83-39.27L82.83-39.27L82.83-39.27Q83.71-39.27 84.18-38.20L84.18-38.20L84.18-38.20Q84.65-37.13 84.65-35.80L84.65-35.80L84.65-35.80Q84.65-33.22 82.80-28.93L82.80-28.93L82.80-28.93Q80.96-24.64 78.02-20.68L78.02-20.68L78.02-20.68Q75.08-16.72 72.00-14.85L72.00-14.85L72.00-14.85Q71.01-12.54 70.48-9.49L70.48-9.49L70.48-9.49Q69.96-6.43 69.96-4.01L69.96-4.01L69.96-4.01Q69.96-3.14 70.07-2.15L70.07-2.15L70.07-2.15Q72.27-8.53 75.05-12.46L75.05-12.46L75.05-12.46Q77.83-16.39 81.24-16.39L81.24-16.39L81.24-16.39Q83.33-16.39 84.37-14.93L84.37-14.93L84.37-14.93Q85.42-13.47 85.42-11.44L85.42-11.44L85.42-11.44Q85.42-10.23 85.11-9.13L85.11-9.13L85.11-9.13Q84.81-8.03 84.15-6.27L84.15-6.27L84.15-6.27Q83.60-4.79 83.33-3.90L83.33-3.90L83.33-3.90Q83.05-3.02 83.05-2.20L83.05-2.20L83.05-2.20Q83.05-1.16 83.49-0.63L83.49-0.63L83.49-0.63Q83.93-0.11 84.70-0.11L84.70-0.11L84.70-0.11Q86.57-0.11 89.10-2.72L89.10-2.72L89.10-2.72Q91.63-5.33 93.28-8.91L93.28-8.91L94.00-8.25L94.00-8.25Q92.18-4.07 89.35-1.38L89.35-1.38L89.35-1.38Q86.52 1.32 83.44 1.32L83.44 1.32L83.44 1.32Q81.62 1.32 80.63 0.36L80.63 0.36L80.63 0.36Q79.64-0.60 79.64-2.15L79.64-2.15L79.64-2.15Q79.64-3.35 80.47-6.05L80.47-6.05L80.47-6.05Q81.35-9.02 81.35-10.45L81.35-10.45L81.35-10.45Q81.35-11.82 80.77-12.46L80.77-12.46L80.77-12.46Q80.19-13.09 79.26-13.09L79.26-13.09L79.26-13.09Q77.22-13.09 75.71-10.70L75.71-10.70L75.71-10.70Q74.20-8.30 72.44-3.96L72.44-3.96L72.44-3.96Q71.12-0.77 70.35 0.66L70.35 0.66L70.35 0.66Q69.58 2.09 68.64 2.09L68.64 2.09ZM72.71-17.00L72.71-17.00Q75.08-18.86 77.41-22.41L77.41-22.41L77.41-22.41Q79.75-25.96 81.26-29.45L81.26-29.45L81.26-29.45Q82.78-32.95 82.78-34.38L82.78-34.38L82.78-34.38Q82.78-34.81 82.56-34.81L82.56-34.81L82.56-34.81Q81.95-34.81 80.05-32.09L80.05-32.09L80.05-32.09Q78.16-29.37 76.07-25.25L76.07-25.25L76.07-25.25Q73.98-21.12 72.71-17.00L72.71-17.00ZM94.88 2.58L94.88 2.58Q93.06 2.58 91.93 1.40L91.93 1.40L91.93 1.40Q90.81 0.22 90.81-1.98L90.81-1.98L90.81-1.98Q90.81-5.22 93.14-9.24L93.14-9.24L93.14-9.24Q95.48-13.26 99.06-16.06L99.06-16.06L99.06-16.06Q102.63-18.86 106.04-18.86L106.04-18.86L106.04-18.86Q108.19-18.86 109.62-17.71L109.62-17.71L109.62-17.71Q111.05-16.55 111.05-14.74L111.05-14.74L111.05-14.74Q111.05-13.47 110.33-12.93L110.33-12.93L110.33-12.93Q109.62-12.38 108.35-12.38L108.35-12.38L108.35-12.38Q108.63-13.37 108.63-14.30L108.63-14.30L108.63-14.30Q108.63-15.68 107.97-16.53L107.97-16.53L107.97-16.53Q107.31-17.38 105.93-17.38L105.93-17.38L105.93-17.38Q103.51-17.38 100.84-14.69L100.84-14.69L100.84-14.69Q98.18-11.99 96.39-8.25L96.39-8.25L96.39-8.25Q94.60-4.51 94.60-1.81L94.60-1.81L94.60-1.81Q94.60 0.33 96.09 0.33L96.09 0.33L96.09 0.33Q98.29 0.33 101.26-3.16L101.26-3.16L101.26-3.16Q104.23-6.66 107.64-11.66L107.64-11.66L107.64-11.66Q108.35-11.55 109.09-11.19L109.09-11.19L109.09-11.19Q109.84-10.84 109.84-10.29L109.84-10.29L109.84-10.29Q109.84-9.85 109.31-8.88L109.31-8.88L109.31-8.88Q108.79-7.92 108.68-7.75L108.68-7.75L108.68-7.75Q107.75-6.16 107.20-4.92L107.20-4.92L107.20-4.92Q106.65-3.69 106.65-2.64L106.65-2.64L106.65-2.64Q106.65-1.71 107.11-0.96L107.11-0.96L107.11-0.96Q107.58-0.22 108.52-0.22L108.52-0.22L108.52-0.22Q110.11-0.22 112.53-2.50L112.53-2.50L112.53-2.50Q114.95-4.79 117.32-8.91L117.32-8.91L117.87-8.36L117.87-8.36Q116.71-5.45 114.90-3.16L114.90-3.16L114.90-3.16Q113.08-0.88 110.99 0.39L110.99 0.39L110.99 0.39Q108.90 1.65 106.98 1.65L106.98 1.65L106.98 1.65Q105.05 1.65 104.03 0.52L104.03 0.52L104.03 0.52Q103.02-0.60 103.02-2.20L103.02-2.20L103.02-2.20Q103.02-2.92 103.18-3.79L103.18-3.79L103.18-3.79Q100.71-0.49 98.75 1.04L98.75 1.04L98.75 1.04Q96.80 2.58 94.88 2.58L94.88 2.58ZM143.94 1.71L143.94 1.71Q142.12 1.71 141.19 0.58L141.19 0.58L141.19 0.58Q140.25-0.55 140.25-2.31L140.25-2.31L140.25-2.31Q140.25-3.79 141.13-6.66L141.13-6.66L141.13-6.66Q141.41-7.59 141.65-8.53L141.65-8.53L141.65-8.53Q141.90-9.46 141.90-10.12L141.90-10.12L141.90-10.12Q141.90-11.11 141.43-11.61L141.43-11.61L141.43-11.61Q140.97-12.10 140.31-12.10L140.31-12.10L140.31-12.10Q139.04-12.10 137.58-10.31L137.58-10.31L137.58-10.31Q136.13-8.53 133.10-3.90L133.10-3.90L133.10-3.90Q132.33-2.69 130.96 0.17L130.96 0.17L130.46 1.21L130.46 1.21Q129.58 1.21 128.62 0.91L128.62 0.91L128.62 0.91Q127.66 0.60 127.66 0.11L127.66 0.11L127.66 0.11Q127.66-0.28 128.59-2.81L128.59-2.81L128.59-2.81Q129.75-6.21 130.43-8.55L130.43-8.55L130.43-8.55Q131.12-10.89 131.12-12.54L131.12-12.54L131.12-12.54Q131.12-14.63 129.75-14.63L129.75-14.63L129.75-14.63Q128.21-14.63 125.76-12.15L125.76-12.15L125.76-12.15Q123.31-9.68 120.95-5.91L120.95-5.91L120.95-5.91Q118.58-2.15 117.26 1.49L117.26 1.49L117.26 1.49Q116.44 1.49 115.36 1.10L115.36 1.10L115.36 1.10Q114.29 0.71 114.29 0.33L114.29 0.33L114.29 0.33Q114.29 0.17 115.06-2.25L115.06-2.25L115.06-2.25Q116.33-5.94 117.18-9.02L117.18-9.02L117.18-9.02Q118.03-12.10 118.09-14.36L118.09-14.36L118.09-14.36Q118.47-14.79 119.19-15.15L119.19-15.15L119.19-15.15Q119.90-15.51 120.62-15.51L120.62-15.51L120.62-15.51Q122.10-15.51 122.10-14.08L122.10-14.08L122.10-14.08Q122.10-12.60 120.67-7.81L120.67-7.81L120.67-7.81Q123.37-12.10 126.47-15.18L126.47-15.18L126.47-15.18Q129.58-18.26 132.28-18.26L132.28-18.26L132.28-18.26Q133.87-18.26 134.56-17.11L134.56-17.11L134.56-17.11Q135.25-15.95 135.25-14.08L135.25-14.08L135.25-14.08Q135.25-12.21 134.70-10.01L134.70-10.01L134.70-10.01Q134.15-7.81 133.54-6.33L133.54-6.33L133.54-6.33Q135.63-10.12 137.89-12.46L137.89-12.46L137.89-12.46Q140.14-14.79 142.67-14.79L142.67-14.79L142.67-14.79Q144.32-14.79 145.06-13.80L145.06-13.80L145.06-13.80Q145.81-12.81 145.81-11.28L145.81-11.28L145.81-11.28Q145.81-10.23 145.53-9.05L145.53-9.05L145.53-9.05Q145.26-7.87 144.71-6.16L144.71-6.16L144.71-6.16Q143.77-3.25 143.77-2.09L143.77-2.09L143.77-2.09Q143.77-0.22 145.42-0.22L145.42-0.22L145.42-0.22Q147.46-0.22 149.27-2.72L149.27-2.72L149.27-2.72Q151.09-5.22 152.79-8.91L152.79-8.91L153.45-8.14L153.45-8.14Q151.91-4.07 149.44-1.18L149.44-1.18L149.44-1.18Q146.96 1.71 143.94 1.71L143.94 1.71ZM179.47 1.71L179.47 1.71Q177.65 1.71 176.72 0.58L176.72 0.58L176.72 0.58Q175.78-0.55 175.78-2.31L175.78-2.31L175.78-2.31Q175.78-3.79 176.66-6.66L176.66-6.66L176.66-6.66Q176.94-7.59 177.18-8.53L177.18-8.53L177.18-8.53Q177.43-9.46 177.43-10.12L177.43-10.12L177.43-10.12Q177.43-11.11 176.96-11.61L176.96-11.61L176.96-11.61Q176.50-12.10 175.84-12.10L175.84-12.10L175.84-12.10Q174.57-12.10 173.11-10.31L173.11-10.31L173.11-10.31Q171.66-8.53 168.63-3.90L168.63-3.90L168.63-3.90Q167.86-2.69 166.49 0.17L166.49 0.17L165.99 1.21L165.99 1.21Q165.11 1.21 164.15 0.91L164.15 0.91L164.15 0.91Q163.19 0.60 163.19 0.11L163.19 0.11L163.19 0.11Q163.19-0.28 164.12-2.81L164.12-2.81L164.12-2.81Q165.28-6.21 165.96-8.55L165.96-8.55L165.96-8.55Q166.65-10.89 166.65-12.54L166.65-12.54L166.65-12.54Q166.65-14.63 165.28-14.63L165.28-14.63L165.28-14.63Q163.74-14.63 161.29-12.15L161.29-12.15L161.29-12.15Q158.84-9.68 156.47-5.91L156.47-5.91L156.47-5.91Q154.11-2.15 152.79 1.49L152.79 1.49L152.79 1.49Q151.97 1.49 150.89 1.10L150.89 1.10L150.89 1.10Q149.82 0.71 149.82 0.33L149.82 0.33L149.82 0.33Q149.82 0.17 150.59-2.25L150.59-2.25L150.59-2.25Q151.86-5.94 152.71-9.02L152.71-9.02L152.71-9.02Q153.56-12.10 153.62-14.36L153.62-14.36L153.62-14.36Q154-14.79 154.72-15.15L154.72-15.15L154.72-15.15Q155.43-15.51 156.15-15.51L156.15-15.51L156.15-15.51Q157.63-15.51 157.63-14.08L157.63-14.08L157.63-14.08Q157.63-12.60 156.20-7.81L156.20-7.81L156.20-7.81Q158.90-12.10 162.00-15.18L162.00-15.18L162.00-15.18Q165.11-18.26 167.81-18.26L167.81-18.26L167.81-18.26Q169.40-18.26 170.09-17.11L170.09-17.11L170.09-17.11Q170.78-15.95 170.78-14.08L170.78-14.08L170.78-14.08Q170.78-12.21 170.22-10.01L170.22-10.01L170.22-10.01Q169.68-7.81 169.07-6.33L169.07-6.33L169.07-6.33Q171.16-10.12 173.42-12.46L173.42-12.46L173.42-12.46Q175.67-14.79 178.20-14.79L178.20-14.79L178.20-14.79Q179.85-14.79 180.59-13.80L180.59-13.80L180.59-13.80Q181.34-12.81 181.34-11.28L181.34-11.28L181.34-11.28Q181.34-10.23 181.06-9.05L181.06-9.05L181.06-9.05Q180.78-7.87 180.24-6.16L180.24-6.16L180.24-6.16Q179.30-3.25 179.30-2.09L179.30-2.09L179.30-2.09Q179.30-0.22 180.95-0.22L180.95-0.22L180.95-0.22Q182.99-0.22 184.80-2.72L184.80-2.72L184.80-2.72Q186.62-5.22 188.32-8.91L188.32-8.91L188.98-8.14L188.98-8.14Q187.44-4.07 184.97-1.18L184.97-1.18L184.97-1.18Q182.49 1.71 179.47 1.71L179.47 1.71ZM193.22 2.42L193.22 2.42Q189.97 2.42 188.24 0.63L188.24 0.63L188.24 0.63Q186.50-1.16 186.50-3.96L186.50-3.96L186.50-3.96Q186.50-7.21 188.65-10.95L188.65-10.95L188.65-10.95Q190.80-14.69 194.07-17.24L194.07-17.24L194.07-17.24Q197.34-19.80 200.47-19.80L200.47-19.80L200.47-19.80Q203.88-19.80 203.88-16.45L203.88-16.45L203.88-16.45Q203.88-13.75 201.85-11.41L201.85-11.41L201.85-11.41Q199.81-9.07 196.63-7.59L196.63-7.59L196.63-7.59Q193.44-6.11 190.25-5.78L190.25-5.78L190.25-5.78Q190.03-4.84 190.03-3.79L190.03-3.79L190.03-3.79Q190.03-1.81 191.02-0.49L191.02-0.49L191.02-0.49Q192.00 0.82 194.37 0.82L194.37 0.82L194.37 0.82Q197.72 0.82 201.13-1.98L201.13-1.98L201.13-1.98Q204.55-4.79 206.69-8.91L206.69-8.91L207.35-8.42L207.35-8.42Q205.15-3.52 201.25-0.55L201.25-0.55L201.25-0.55Q197.34 2.42 193.22 2.42L193.22 2.42ZM190.52-6.82L190.52-6.82Q192.83-7.65 195.36-9.13L195.36-9.13L195.36-9.13Q197.89-10.62 199.68-12.62L199.68-12.62L199.68-12.62Q201.47-14.63 201.47-16.83L201.47-16.83L201.47-16.83Q201.47-17.49 201.22-17.79L201.22-17.79L201.22-17.79Q200.97-18.09 200.31-18.09L200.31-18.09L200.31-18.09Q198.61-18.09 196.60-16.39L196.60-16.39L196.60-16.39Q194.59-14.69 192.91-12.04L192.91-12.04L192.91-12.04Q191.24-9.40 190.52-6.82L190.52-6.82ZM208.84 1.65L208.84 1.65Q207.24 1.65 205.97 0.47L205.97 0.47L205.97 0.47Q204.71-0.71 204.71-2.97L204.71-2.97L204.71-2.97Q204.71-6.00 207.02-10.04L207.02-10.04L207.02-10.04Q209.33-14.08 212.80-16.94L212.80-16.94L212.80-16.94Q216.26-19.80 219.50-19.80L219.50-19.80L219.50-19.80Q221.93-19.80 221.93-18.09L221.93-18.09L221.93-18.09Q221.93-17.88 221.81-17.32L221.81-17.32L221.81-17.32Q221.27-18.15 219.72-18.15L219.72-18.15L219.72-18.15Q216.97-18.15 214.39-15.54L214.39-15.54L214.39-15.54Q211.81-12.93 210.18-9.40L210.18-9.40L210.18-9.40Q208.56-5.88 208.56-3.63L208.56-3.63L208.56-3.63Q208.56-2.42 209.08-1.71L209.08-1.71L209.08-1.71Q209.60-0.99 210.54-0.99L210.54-0.99L210.54-0.99Q212.03-0.99 214.17-2.89L214.17-2.89L214.17-2.89Q216.31-4.79 218.52-8.25L218.52-8.25L218.52-8.25Q220.72-11.71 222.42-16.11L222.42-16.11L222.42-16.11Q226.71-27.23 229.60-33.41L229.60-33.41L229.60-33.41Q232.49-39.60 234.47-39.60L234.47-39.60L234.47-39.60Q234.91-39.60 235.24-39.24L235.24-39.24L235.24-39.24Q235.56-38.88 235.56-38.34L235.56-38.34L235.56-38.34Q235.56-37.51 234.69-35.50L234.69-35.50L234.69-35.50Q233.81-33.49 231.82-29.32L231.82-29.32L231.82-29.32Q227.75-20.84 225.34-14.66L225.34-14.66L225.34-14.66Q222.91-8.47 222.91-3.85L222.91-3.85L222.91-3.85Q222.91-2.04 223.11-1.40L223.11-1.40L223.11-1.40Q223.30-0.77 224.18-0.77L224.18-0.77L224.18-0.77Q225.34-0.77 226.90-1.79L226.90-1.79L226.90-1.79Q228.47-2.81 230.01-4.65L230.01-4.65L230.01-4.65Q231.55-6.49 232.65-8.91L232.65-8.91L233.31-8.42L233.31-8.42Q232.27-5.67 230.45-3.41L230.45-3.41L230.45-3.41Q228.63-1.16 226.57 0.14L226.57 0.14L226.57 0.14Q224.51 1.43 222.64 1.43L222.64 1.43L222.64 1.43Q220.77 1.43 219.89 0.22L219.89 0.22L219.89 0.22Q219.01-0.99 219.01-2.69L219.01-2.69L219.01-2.69Q219.01-4.57 220.06-8.58L220.06-8.58L220.06-8.58Q217.25-3.96 214.25-1.16L214.25-1.16L214.25-1.16Q211.25 1.65 208.84 1.65L208.84 1.65ZM246.84 4.79L246.84 4.79Q244.97 3.74 244.97 1.93L244.97 1.93L244.97 1.93Q244.97-0.22 247.25-4.79L247.25-4.79L247.25-4.79Q249.54-9.35 253.33-15.29L253.33-15.29L253.33-15.29Q249.98-15.56 247.39-15.56L247.39-15.56L245.47-15.56L245.47-15.56Q246.51-18.43 251.19-18.43L251.19-18.43L251.19-18.43Q252.67-18.43 255.15-18.04L255.15-18.04L255.15-18.04Q259.38-24.42 263.75-30.06L263.75-30.06L263.75-30.06Q268.13-35.70 270.66-38.06L270.66-38.06L270.66-38.06Q272.25-39.60 273.30-39.60L273.30-39.60L273.30-39.60Q274.45-39.60 276.21-37.84L276.21-37.84L276.21-37.84Q275.11-36.96 273.02-30.72L273.02-30.72L273.02-30.72Q270.93-24.48 269.28-17.08L269.28-17.08L269.28-17.08Q267.63-9.68 267.63-5.17L267.63-5.17L267.63-5.17Q267.63-2.97 268.10-1.87L268.10-1.87L268.10-1.87Q268.57-0.77 269.67-0.77L269.67-0.77L269.67-0.77Q272.69-0.77 276.87-8.91L276.87-8.91L277.42-8.36L277.42-8.36Q275.72-3.85 273.16-1.10L273.16-1.10L273.16-1.10Q270.60 1.65 267.91 1.65L267.91 1.65L267.91 1.65Q265.71 1.65 264.66-0.30L264.66-0.30L264.66-0.30Q263.62-2.25 263.62-5.72L263.62-5.72L263.62-5.72Q263.62-9.24 264.55-13.92L264.55-13.92L264.55-13.92Q261.03-14.46 256.41-15.02L256.41-15.02L256.41-15.02Q251.02-5.12 246.84 4.79L246.84 4.79ZM264.94-15.84L264.94-15.84Q266.09-21.01 267.91-26.57L267.91-26.57L267.91-26.57Q269.72-32.12 271.54-36.13L271.54-36.13L271.54-36.13Q269.06-34.59 265.46-29.64L265.46-29.64L265.46-29.64Q261.86-24.70 257.84-17.55L257.84-17.55L257.84-17.55Q260.04-17.11 262.46-16.45L262.46-16.45L264.94-15.84ZM284.24 2.81L284.24 2.81Q280.67 2.81 279.02 0.66L279.02 0.66L279.02 0.66Q277.37-1.49 277.37-4.40L277.37-4.40L277.37-4.40Q277.37-6.60 278.14-7.51L278.14-7.51L278.14-7.51Q278.91-8.42 279.81-8.80L279.81-8.80L279.81-8.80Q280.72-9.19 280.89-9.35L280.89-9.35L280.89-9.35Q284.41-13.20 286.33-17.32L286.33-17.32L286.33-17.98L286.33-17.98Q286.33-19.86 286.96-20.79L286.96-20.79L286.96-20.79Q287.60-21.73 288.48-21.73L288.48-21.73L288.48-21.73Q288.92-21.73 289.14-21.53L289.14-21.53L289.14-21.53Q289.36-21.34 289.36-21.01L289.36-21.01L289.36-21.01Q289.36-20.79 289.19-20.10L289.19-20.10L289.19-20.10Q289.03-19.41 289.03-18.59L289.03-18.59L289.03-18.59Q289.03-17.49 289.33-16.25L289.33-16.25L289.33-16.25Q289.63-15.02 290.29-13.04L290.29-13.04L290.29-13.04Q291.06-10.67 291.47-8.91L291.47-8.91L291.47-8.91Q291.89-7.15 291.89-5.33L291.89-5.33L291.89-5.33Q291.89-3.90 291.56-2.64L291.56-2.64L291.56-2.64Q293.54-2.97 295.24-4.43L295.24-4.43L295.24-4.43Q296.95-5.88 298.49-8.86L298.49-8.86L298.98-8.30L298.98-8.30Q297.99-5.45 295.96-3.79L295.96-3.79L295.96-3.79Q293.92-2.15 291.28-1.76L291.28-1.76L291.28-1.76Q290.46 0.49 288.59 1.65L288.59 1.65L288.59 1.65Q286.72 2.81 284.24 2.81L284.24 2.81ZM288.09-2.69L288.09-2.69Q288.31-4.13 288.31-5.28L288.31-5.28L288.31-5.28Q288.31-6.93 288.04-8.58L288.04-8.58L288.04-8.58Q287.76-10.23 287.21-12.38L287.21-12.38L287.21-12.38Q286.72-14.57 286.61-15.23L286.61-15.23L286.61-15.23Q283.80-10.62 281.27-8.09L281.27-8.09L281.27-8.09Q282.15-6.16 283.94-4.67L283.94-4.67L283.94-4.67Q285.73-3.19 288.09-2.69L288.09-2.69ZM284.35 0.88L284.35 0.88Q286.88 0.88 287.82-1.81L287.82-1.81L287.82-1.81Q285.62-2.25 283.80-3.55L283.80-3.55L283.80-3.55Q281.99-4.84 281.05-6.38L281.05-6.38L281.05-6.38Q279.84-6.33 279.84-4.46L279.84-4.46L279.84-4.46Q279.84-2.37 281.08-0.74L281.08-0.74L281.08-0.74Q282.32 0.88 284.35 0.88L284.35 0.88ZM302.01 1.65L302.01 1.65Q299.75 1.65 298.68 0.11L298.68 0.11L298.68 0.11Q297.61-1.43 297.61-4.01L297.61-4.01L297.61-4.01Q297.61-8.96 301.02-17.46L301.02-17.46L301.02-17.46Q304.43-25.96 308.63-32.78L308.63-32.78L308.63-32.78Q312.84-39.60 314.71-39.60L314.71-39.60L314.71-39.60Q315.48-39.60 316.00-38.25L316.00-38.25L316.00-38.25Q316.53-36.91 316.53-35.53L316.53-35.53L316.53-35.53Q316.53-33 314.46-28.08L314.46-28.08L314.46-28.08Q312.40-23.16 309.05-18.09L309.05-18.09L309.05-18.09Q305.69-13.04 301.90-9.90L301.90-9.90L301.90-9.90Q301.18-6.71 301.18-4.34L301.18-4.34L301.18-4.34Q301.18-0.11 303.60-0.11L303.60-0.11L303.60-0.11Q305.64-0.11 307.75-2.69L307.75-2.69L307.75-2.69Q309.87-5.28 311.52-8.91L311.52-8.91L312.35-8.47L312.35-8.47Q307.62 1.65 302.01 1.65L302.01 1.65ZM302.39-11.77L302.39-11.77Q305.42-14.79 308.30-19.39L308.30-19.39L308.30-19.39Q311.19-23.98 313.01-28.19L313.01-28.19L313.01-28.19Q314.82-32.40 314.82-34.27L314.82-34.27L314.82-34.27Q314.82-35.15 314.44-35.15L314.44-35.15L314.44-35.15Q313.67-35.15 311.27-31.38L311.27-31.38L311.27-31.38Q308.88-27.61 306.35-22.16L306.35-22.16L306.35-22.16Q303.82-16.72 302.39-11.77L302.39-11.77ZM313.06 2.58L313.06 2.58Q311.25 2.58 310.12 1.40L310.12 1.40L310.12 1.40Q308.99 0.22 308.99-1.98L308.99-1.98L308.99-1.98Q308.99-5.22 311.33-9.24L311.33-9.24L311.33-9.24Q313.67-13.26 317.24-16.06L317.24-16.06L317.24-16.06Q320.82-18.86 324.23-18.86L324.23-18.86L324.23-18.86Q326.37-18.86 327.80-17.71L327.80-17.71L327.80-17.71Q329.23-16.55 329.23-14.74L329.23-14.74L329.23-14.74Q329.23-13.47 328.52-12.93L328.52-12.93L328.52-12.93Q327.80-12.38 326.54-12.38L326.54-12.38L326.54-12.38Q326.81-13.37 326.81-14.30L326.81-14.30L326.81-14.30Q326.81-15.68 326.15-16.53L326.15-16.53L326.15-16.53Q325.49-17.38 324.12-17.38L324.12-17.38L324.12-17.38Q321.70-17.38 319.03-14.69L319.03-14.69L319.03-14.69Q316.36-11.99 314.57-8.25L314.57-8.25L314.57-8.25Q312.79-4.51 312.79-1.81L312.79-1.81L312.79-1.81Q312.79 0.33 314.27 0.33L314.27 0.33L314.27 0.33Q316.47 0.33 319.44-3.16L319.44-3.16L319.44-3.16Q322.41-6.66 325.82-11.66L325.82-11.66L325.82-11.66Q326.54-11.55 327.28-11.19L327.28-11.19L327.28-11.19Q328.02-10.84 328.02-10.29L328.02-10.29L328.02-10.29Q328.02-9.85 327.50-8.88L327.50-8.88L327.50-8.88Q326.98-7.92 326.87-7.75L326.87-7.75L326.87-7.75Q325.93-6.16 325.38-4.92L325.38-4.92L325.38-4.92Q324.83-3.69 324.83-2.64L324.83-2.64L324.83-2.64Q324.83-1.71 325.30-0.96L325.30-0.96L325.30-0.96Q325.77-0.22 326.70-0.22L326.70-0.22L326.70-0.22Q328.30-0.22 330.72-2.50L330.72-2.50L330.72-2.50Q333.14-4.79 335.50-8.91L335.50-8.91L336.05-8.36L336.05-8.36Q334.90-5.45 333.08-3.16L333.08-3.16L333.08-3.16Q331.27-0.88 329.18 0.39L329.18 0.39L329.18 0.39Q327.09 1.65 325.16 1.65L325.16 1.65L325.16 1.65Q323.24 1.65 322.22 0.52L322.22 0.52L322.22 0.52Q321.20-0.60 321.20-2.20L321.20-2.20L321.20-2.20Q321.20-2.92 321.37-3.79L321.37-3.79L321.37-3.79Q318.89-0.49 316.94 1.04L316.94 1.04L316.94 1.04Q314.99 2.58 313.06 2.58L313.06 2.58ZM362.12 1.71L362.12 1.71Q360.31 1.71 359.37 0.58L359.37 0.58L359.37 0.58Q358.44-0.55 358.44-2.31L358.44-2.31L358.44-2.31Q358.44-3.79 359.32-6.66L359.32-6.66L359.32-6.66Q359.59-7.59 359.84-8.53L359.84-8.53L359.84-8.53Q360.09-9.46 360.09-10.12L360.09-10.12L360.09-10.12Q360.09-11.11 359.62-11.61L359.62-11.61L359.62-11.61Q359.15-12.10 358.49-12.10L358.49-12.10L358.49-12.10Q357.23-12.10 355.77-10.31L355.77-10.31L355.77-10.31Q354.31-8.53 351.29-3.90L351.29-3.90L351.29-3.90Q350.52-2.69 349.14 0.17L349.14 0.17L348.65 1.21L348.65 1.21Q347.77 1.21 346.80 0.91L346.80 0.91L346.80 0.91Q345.84 0.60 345.84 0.11L345.84 0.11L345.84 0.11Q345.84-0.28 346.78-2.81L346.78-2.81L346.78-2.81Q347.93-6.21 348.62-8.55L348.62-8.55L348.62-8.55Q349.31-10.89 349.31-12.54L349.31-12.54L349.31-12.54Q349.31-14.63 347.93-14.63L347.93-14.63L347.93-14.63Q346.39-14.63 343.94-12.15L343.94-12.15L343.94-12.15Q341.50-9.68 339.13-5.91L339.13-5.91L339.13-5.91Q336.77-2.15 335.45 1.49L335.45 1.49L335.45 1.49Q334.62 1.49 333.55 1.10L333.55 1.10L333.55 1.10Q332.48 0.71 332.48 0.33L332.48 0.33L332.48 0.33Q332.48 0.17 333.25-2.25L333.25-2.25L333.25-2.25Q334.51-5.94 335.36-9.02L335.36-9.02L335.36-9.02Q336.22-12.10 336.27-14.36L336.27-14.36L336.27-14.36Q336.66-14.79 337.37-15.15L337.37-15.15L337.37-15.15Q338.09-15.51 338.80-15.51L338.80-15.51L338.80-15.51Q340.29-15.51 340.29-14.08L340.29-14.08L340.29-14.08Q340.29-12.60 338.86-7.81L338.86-7.81L338.86-7.81Q341.55-12.10 344.66-15.18L344.66-15.18L344.66-15.18Q347.77-18.26 350.46-18.26L350.46-18.26L350.46-18.26Q352.06-18.26 352.74-17.11L352.74-17.11L352.74-17.11Q353.43-15.95 353.43-14.08L353.43-14.08L353.43-14.08Q353.43-12.21 352.88-10.01L352.88-10.01L352.88-10.01Q352.33-7.81 351.73-6.33L351.73-6.33L351.73-6.33Q353.82-10.12 356.07-12.46L356.07-12.46L356.07-12.46Q358.33-14.79 360.86-14.79L360.86-14.79L360.86-14.79Q362.51-14.79 363.25-13.80L363.25-13.80L363.25-13.80Q363.99-12.81 363.99-11.28L363.99-11.28L363.99-11.28Q363.99-10.23 363.72-9.05L363.72-9.05L363.72-9.05Q363.44-7.87 362.89-6.16L362.89-6.16L362.89-6.16Q361.96-3.25 361.96-2.09L361.96-2.09L361.96-2.09Q361.96-0.22 363.61-0.22L363.61-0.22L363.61-0.22Q365.64-0.22 367.46-2.72L367.46-2.72L367.46-2.72Q369.27-5.22 370.98-8.91L370.98-8.91L371.64-8.14L371.64-8.14Q370.10-4.07 367.62-1.18L367.62-1.18L367.62-1.18Q365.15 1.71 362.12 1.71L362.12 1.71ZM402.00 1.10L402.00 1.10Q400.13 1.10 399.14 0.14L399.14 0.14L399.14 0.14Q398.15-0.82 398.15-2.42L398.15-2.42L398.15-2.42Q398.15-3.14 398.39-4.10L398.39-4.10L398.39-4.10Q398.64-5.06 398.92-6.00L398.92-6.00L398.92-6.00Q399.25-6.99 399.49-8.09L399.49-8.09L399.49-8.09Q399.74-9.19 399.74-10.06L399.74-10.06L399.74-10.06Q399.74-12.76 397.54-12.76L397.54-12.76L397.54-12.76Q395.45-12.76 393.17-10.56L393.17-10.56L393.17-10.56Q390.89-8.36 389.10-5.67L389.10-5.67L389.10-5.67Q387.31-2.97 385.06 0.82L385.06 0.82L385.06 0.82Q384.12 0.82 383.35 0.52L383.35 0.52L383.35 0.52Q382.58 0.22 382.14-0.39L382.14-0.39L382.14-0.39Q382.14-0.66 382.86-2.37L382.86-2.37L382.86-2.37Q384.23-5.88 385.11-8.77L385.11-8.77L385.11-8.77Q385.99-11.66 386.05-13.92L386.05-13.92L386.05-13.92Q386.43-14.36 387.15-14.71L387.15-14.71L387.15-14.71Q387.86-15.07 388.58-15.07L388.58-15.07L388.58-15.07Q390.06-15.07 390.06-13.64L390.06-13.64L390.06-13.64Q390.06-12.81 389.57-10.75L389.57-10.75L389.57-10.75Q389.07-8.69 388.30-6.38L388.30-6.38L388.30-6.38Q390.94-10.45 393.91-13.26L393.91-13.26L393.91-13.26Q396.88-16.06 399.74-16.06L399.74-16.06L399.74-16.06Q401.78-16.06 402.79-14.60L402.79-14.60L402.79-14.60Q403.81-13.14 403.81-11.11L403.81-11.11L403.81-11.11Q403.81-9.90 403.51-8.80L403.51-8.80L403.51-8.80Q403.21-7.70 402.60-6.27L402.60-6.27L402.60-6.27Q402.11-5.06 401.83-4.18L401.83-4.18L401.83-4.18Q401.56-3.30 401.56-2.42L401.56-2.42L401.56-2.42Q401.56-0.33 403.21-0.33L403.21-0.33L403.21-0.33Q405.08-0.33 407.08-2.81L407.08-2.81L407.08-2.81Q409.09-5.28 410.91-8.91L410.91-8.91L411.51-8.20L411.51-8.20Q407.55 1.10 402.00 1.10L402.00 1.10Z" fill="rgba(90.36191231863839%,8.831598222840508%,8.831598222840508%,0.024)"></path></g></g><style>text {
  font-size: 64px;
  font-family: Arial Black;
  dominant-baseline: central;
  text-anchor: middle;
}</style></svg>